999
"DXF R12 Output" (www.mydxf.blogspot.com)
 0 
SECTION
 2 
HEADER
 9 
$ACADVER
 1 
AC1009
 9 
$EXTMIN
 10 
 0 
 20 
 0 
 9 
$EXTMAX
 10 
 8.5 
 20 
 11 
 0 
ENDSEC
 0 
SECTION
 2 
ENTITIES
0
POLYLINE
8
Layer 1
62
7
70
1
10
0.000000
20
0.000000
66
1
0
VERTEX
8
Layer 1
10
67.932479
20
146.737662
70
0
0
VERTEX
8
Layer 1
10
56.855183
20
112.987375
70
0
0
VERTEX
8
Layer 1
10
56.039676
20
111.409427
70
0
0
VERTEX
8
Layer 1
10
54.800332
20
110.187425
70
0
0
VERTEX
8
Layer 1
10
53.243538
20
109.398017
70
0
0
VERTEX
8
Layer 1
10
51.475681
20
109.117848
70
0
0
VERTEX
8
Layer 1
10
15.627410
20
109.117848
70
0
0
VERTEX
8
Layer 1
10
13.130991
20
108.919975
70
0
0
VERTEX
8
Layer 1
10
10.743510
20
108.343989
70
0
0
VERTEX
8
Layer 1
10
8.501743
20
107.416340
70
0
0
VERTEX
8
Layer 1
10
6.442469
20
106.163482
70
0
0
VERTEX
8
Layer 1
10
4.602465
20
104.611863
70
0
0
VERTEX
8
Layer 1
10
3.018509
20
102.787936
70
0
0
VERTEX
8
Layer 1
10
1.727378
20
100.718151
70
0
0
VERTEX
8
Layer 1
10
0.765851
20
98.428960
70
0
0
VERTEX
8
Layer 1
10
0.184523
20
96.017401
70
0
0
VERTEX
8
Layer 1
10
0.000115
20
93.591601
70
0
0
VERTEX
8
Layer 1
10
0.198581
20
91.194345
70
0
0
VERTEX
8
Layer 1
10
0.765875
20
88.868418
70
0
0
VERTEX
8
Layer 1
10
1.687952
20
86.656605
70
0
0
VERTEX
8
Layer 1
10
2.950764
20
84.601691
70
0
0
VERTEX
8
Layer 1
10
4.540266
20
82.746460
70
0
0
VERTEX
8
Layer 1
10
6.442411
20
81.133698
70
0
0
VERTEX
8
Layer 1
10
35.444332
20
60.274768
70
0
0
VERTEX
8
Layer 1
10
36.708138
20
59.019628
70
0
0
VERTEX
8
Layer 1
10
37.499018
20
57.475216
70
0
0
VERTEX
8
Layer 1
10
37.776243
20
55.765505
70
0
0
VERTEX
8
Layer 1
10
37.499084
20
54.014470
70
0
0
VERTEX
8
Layer 1
10
26.421364
20
20.263733
70
0
0
VERTEX
8
Layer 1
10
25.840040
20
17.852251
70
0
0
VERTEX
8
Layer 1
10
25.655642
20
15.426490
70
0
0
VERTEX
8
Layer 1
10
25.854122
20
13.029249
70
0
0
VERTEX
8
Layer 1
10
26.421427
20
10.703324
70
0
0
VERTEX
8
Layer 1
10
27.343507
20
8.491513
70
0
0
VERTEX
8
Layer 1
10
28.606311
20
6.436613
70
0
0
VERTEX
8
Layer 1
10
30.195788
20
4.581422
70
0
0
VERTEX
8
Layer 1
10
32.097887
20
2.968736
70
0
0
VERTEX
8
Layer 1
10
34.235045
20
1.676215
70
0
0
VERTEX
8
Layer 1
10
36.508564
20
0.752986
70
0
0
VERTEX
8
Layer 1
10
38.872985
20
0.199048
70
0
0
VERTEX
8
Layer 1
10
41.282852
20
0.014402
70
0
0
VERTEX
8
Layer 1
10
43.692707
20
0.199048
70
0
0
VERTEX
8
Layer 1
10
46.057091
20
0.752986
70
0
0
VERTEX
8
Layer 1
10
48.330548
20
1.676215
70
0
0
VERTEX
8
Layer 1
10
50.467620
20
2.968736
70
0
0
VERTEX
8
Layer 1
10
79.469621
20
23.827931
70
0
0
VERTEX
8
Layer 1
10
81.066077
20
24.629965
70
0
0
VERTEX
8
Layer 1
10
82.794271
20
24.897309
70
0
0
VERTEX
8
Layer 1
10
84.522515
20
24.629965
70
0
0
VERTEX
8
Layer 1
10
86.119121
20
23.827931
70
0
0
VERTEX
8
Layer 1
10
115.121122
20
2.968736
70
0
0
VERTEX
8
Layer 1
10
117.258193
20
1.676215
70
0
0
VERTEX
8
Layer 1
10
119.531646
20
0.752986
70
0
0
VERTEX
8
Layer 1
10
121.896020
20
0.199048
70
0
0
VERTEX
8
Layer 1
10
124.305856
20
0.014402
70
0
0
VERTEX
8
Layer 1
10
126.715691
20
0.199048
70
0
0
VERTEX
8
Layer 1
10
129.080066
20
0.752986
70
0
0
VERTEX
8
Layer 1
10
131.353519
20
1.676215
70
0
0
VERTEX
8
Layer 1
10
133.490590
20
2.968736
70
0
0
VERTEX
8
Layer 1
10
135.392862
20
4.581422
70
0
0
VERTEX
8
Layer 1
10
136.982462
20
6.436613
70
0
0
VERTEX
8
Layer 1
10
138.245340
20
8.491513
70
0
0
VERTEX
8
Layer 1
10
139.167450
20
10.703324
70
0
0
VERTEX
8
Layer 1
10
139.734741
20
13.029249
70
0
0
VERTEX
8
Layer 1
10
139.933166
20
15.426490
70
0
0
VERTEX
8
Layer 1
10
139.748674
20
17.852251
70
0
0
VERTEX
8
Layer 1
10
139.167218
20
20.263733
70
0
0
VERTEX
8
Layer 1
10
128.089393
20
54.014470
70
0
0
VERTEX
8
Layer 1
10
127.812197
20
55.765505
70
0
0
VERTEX
8
Layer 1
10
128.089360
20
57.475216
70
0
0
VERTEX
8
Layer 1
10
128.880227
20
59.019628
70
0
0
VERTEX
8
Layer 1
10
130.144144
20
60.274768
70
0
0
VERTEX
8
Layer 1
10
159.146145
20
81.133698
70
0
0
VERTEX
8
Layer 1
10
161.048265
20
82.746460
70
0
0
VERTEX
8
Layer 1
10
162.637793
20
84.601691
70
0
0
VERTEX
8
Layer 1
10
163.900663
20
86.656605
70
0
0
VERTEX
8
Layer 1
10
164.822807
20
88.868418
70
0
0
VERTEX
8
Layer 1
10
165.390157
20
91.194345
70
0
0
VERTEX
8
Layer 1
10
165.588646
20
93.591601
70
0
0
VERTEX
8
Layer 1
10
165.404208
20
96.017401
70
0
0
VERTEX
8
Layer 1
10
164.822774
20
98.428960
70
0
0
VERTEX
8
Layer 1
10
163.861210
20
100.718151
70
0
0
VERTEX
8
Layer 1
10
162.570077
20
102.787936
70
0
0
VERTEX
8
Layer 1
10
160.986143
20
104.611863
70
0
0
VERTEX
8
Layer 1
10
159.146178
20
106.163482
70
0
0
VERTEX
8
Layer 1
10
157.086953
20
107.416340
70
0
0
VERTEX
8
Layer 1
10
154.845237
20
108.343989
70
0
0
VERTEX
8
Layer 1
10
152.457800
20
108.919975
70
0
0
VERTEX
8
Layer 1
10
149.961411
20
109.117848
70
0
0
VERTEX
8
Layer 1
10
114.113325
20
109.117848
70
0
0
VERTEX
8
Layer 1
10
112.345166
20
109.398017
70
0
0
VERTEX
8
Layer 1
10
110.788244
20
110.187425
70
0
0
VERTEX
8
Layer 1
10
109.548921
20
111.409427
70
0
0
VERTEX
8
Layer 1
10
108.733559
20
112.987375
70
0
0
VERTEX
8
Layer 1
10
97.655998
20
146.737662
70
0
0
VERTEX
8
Layer 1
10
96.694424
20
149.026994
70
0
0
VERTEX
8
Layer 1
10
95.403264
20
151.096886
70
0
0
VERTEX
8
Layer 1
10
93.819297
20
152.920893
70
0
0
VERTEX
8
Layer 1
10
91.979303
20
154.472567
70
0
0
VERTEX
8
Layer 1
10
89.920061
20
155.725461
70
0
0
VERTEX
8
Layer 1
10
87.678350
20
156.653129
70
0
0
VERTEX
8
Layer 1
10
85.290948
20
157.229125
70
0
0
VERTEX
8
Layer 1
10
82.794635
20
157.427000
70
0
0
VERTEX
8
Layer 1
10
80.298061
20
157.229125
70
0
0
VERTEX
8
Layer 1
10
77.910462
20
156.653129
70
0
0
VERTEX
8
Layer 1
10
75.668609
20
155.725461
70
0
0
VERTEX
8
Layer 1
10
73.609273
20
154.472567
70
0
0
VERTEX
8
Layer 1
10
71.769221
20
152.920893
70
0
0
VERTEX
8
Layer 1
10
70.185225
20
151.096886
70
0
0
VERTEX
8
Layer 1
10
68.894055
20
149.026994
70
0
0
VERTEX
8
Layer 1
10
67.932479
20
146.737662
70
0
0
VERTEX
8
Layer 1
10
67.932479
20
146.737662
70
0
0
SEQEND
8
Layer 1
 0 
ENDSEC
 0 
EOF