<svg width="626" height="595" viewBox="0 0 626 595" fill="none" xmlns="http://www.w3.org/2000/svg">
<path fill-rule="evenodd" clip-rule="evenodd" d="M256.753 40.4007L214.886 167.961C212.023 176.681 203.816 182.586 194.554 182.586H59.0643C33.4781 182.586 10.801 198.896 2.89456 222.985C-5.01193 247.075 3.64971 273.464 24.3493 288.353L133.963 367.19C141.455 372.578 144.591 382.131 141.729 390.851L99.8604 518.413C91.9539 542.502 100.616 568.892 121.315 583.78C142.015 598.668 170.045 598.668 190.744 583.78L300.358 504.942C307.85 499.553 317.997 499.553 325.49 504.942L435.104 583.78C455.803 598.668 483.833 598.668 504.532 583.78C525.233 568.892 533.895 542.502 525.987 518.413L484.118 390.851C481.256 382.131 484.391 372.578 491.884 367.19L601.498 288.353C622.197 273.464 630.861 247.075 622.953 222.985C615.046 198.896 592.37 182.586 566.784 182.586H431.295C422.031 182.586 413.824 176.681 410.962 167.961L369.094 40.4007C361.187 16.3101 338.51 0 312.925 0C287.337 0 264.66 16.3101 256.753 40.4007Z" fill="#EFC959"/>
</svg>
