999
"DXF R12 Output" (www.mydxf.blogspot.com)
 0 
SECTION
 2 
HEADER
 9 
$ACADVER
 1 
AC1009
 9 
$EXTMIN
 10 
 0 
 20 
 0 
 9 
$EXTMAX
 10 
 8.5 
 20 
 11 
 0 
ENDSEC
 0 
SECTION
 2 
ENTITIES
0
POLYLINE
8
Layer 1
62
7
70
1
10
0.000000
20
0.000000
66
1
0
VERTEX
8
Layer 1
10
77.007676
20
106.309590
70
0
0
VERTEX
8
Layer 1
10
79.058847
20
103.418169
70
0
0
VERTEX
8
Layer 1
10
80.243986
20
101.949629
70
0
0
VERTEX
8
Layer 1
10
81.587012
20
100.524020
70
0
0
VERTEX
8
Layer 1
10
83.126566
20
99.184954
70
0
0
VERTEX
8
Layer 1
10
84.901286
20
97.976044
70
0
0
VERTEX
8
Layer 1
10
86.949813
20
96.940904
70
0
0
VERTEX
8
Layer 1
10
89.310785
20
96.123145
70
0
0
VERTEX
8
Layer 1
10
92.293167
20
95.520856
70
0
0
VERTEX
8
Layer 1
10
96.074073
20
95.088137
70
0
0
VERTEX
8
Layer 1
10
100.494368
20
94.802622
70
0
0
VERTEX
8
Layer 1
10
105.394918
20
94.641943
70
0
0
VERTEX
8
Layer 1
10
116.000248
20
94.605621
70
0
0
VERTEX
8
Layer 1
10
126.616988
20
94.800230
70
0
0
VERTEX
8
Layer 1
10
137.230851
20
95.313562
70
0
0
VERTEX
8
Layer 1
10
142.537578
20
95.570926
70
0
0
VERTEX
8
Layer 1
10
147.566803
20
95.654105
70
0
0
VERTEX
8
Layer 1
10
152.110501
20
95.432113
70
0
0
VERTEX
8
Layer 1
10
154.135270
20
95.165744
70
0
0
VERTEX
8
Layer 1
10
155.960649
20
94.773962
70
0
0
VERTEX
8
Layer 1
10
157.560634
20
94.240393
70
0
0
VERTEX
8
Layer 1
10
158.909222
20
93.548664
70
0
0
VERTEX
8
Layer 1
10
159.980410
20
92.682402
70
0
0
VERTEX
8
Layer 1
10
160.748195
20
91.625234
70
0
0
VERTEX
8
Layer 1
10
161.731787
20
89.193567
70
0
0
VERTEX
8
Layer 1
10
162.319521
20
86.605234
70
0
0
VERTEX
8
Layer 1
10
162.611335
20
83.971757
70
0
0
VERTEX
8
Layer 1
10
162.707168
20
81.404657
70
0
0
VERTEX
8
Layer 1
10
162.710641
20
76.915676
70
0
0
VERTEX
8
Layer 1
10
162.818156
20
75.216838
70
0
0
VERTEX
8
Layer 1
10
163.129442
20
74.030464
70
0
0
VERTEX
8
Layer 1
10
163.794051
20
73.280020
70
0
0
VERTEX
8
Layer 1
10
164.857674
20
72.774522
70
0
0
VERTEX
8
Layer 1
10
166.264456
20
72.453818
70
0
0
VERTEX
8
Layer 1
10
167.958545
20
72.257758
70
0
0
VERTEX
8
Layer 1
10
171.985226
20
71.998963
70
0
0
VERTEX
8
Layer 1
10
176.490884
20
71.516926
70
0
0
VERTEX
8
Layer 1
10
179.685520
20
71.336507
70
0
0
VERTEX
8
Layer 1
10
184.398220
20
71.372943
70
0
0
VERTEX
8
Layer 1
10
190.216773
20
71.361680
70
0
0
VERTEX
8
Layer 1
10
196.728970
20
71.038163
70
0
0
VERTEX
8
Layer 1
10
200.116369
20
70.676636
70
0
0
VERTEX
8
Layer 1
10
203.522600
20
70.137839
70
0
0
VERTEX
8
Layer 1
10
206.896138
20
69.388700
70
0
0
VERTEX
8
Layer 1
10
210.185455
20
68.396153
70
0
0
VERTEX
8
Layer 1
10
213.339025
20
67.127126
70
0
0
VERTEX
8
Layer 1
10
216.305322
20
65.548551
70
0
0
VERTEX
8
Layer 1
10
219.032821
20
63.627359
70
0
0
VERTEX
8
Layer 1
10
221.469994
20
61.330480
70
0
0
VERTEX
8
Layer 1
10
223.589734
20
58.592931
70
0
0
VERTEX
8
Layer 1
10
225.401628
20
55.420111
70
0
0
VERTEX
8
Layer 1
10
226.909187
20
51.884527
70
0
0
VERTEX
8
Layer 1
10
228.115926
20
48.058683
70
0
0
VERTEX
8
Layer 1
10
229.025358
20
44.015085
70
0
0
VERTEX
8
Layer 1
10
229.640996
20
39.826239
70
0
0
VERTEX
8
Layer 1
10
229.966354
20
35.564649
70
0
0
VERTEX
8
Layer 1
10
230.004945
20
31.302823
70
0
0
VERTEX
8
Layer 1
10
229.760283
20
27.113265
70
0
0
VERTEX
8
Layer 1
10
229.235880
20
23.068481
70
0
0
VERTEX
8
Layer 1
10
228.435250
20
19.240977
70
0
0
VERTEX
8
Layer 1
10
227.361906
20
15.703258
70
0
0
VERTEX
8
Layer 1
10
226.019362
20
12.527829
70
0
0
VERTEX
8
Layer 1
10
224.411131
20
9.787196
70
0
0
VERTEX
8
Layer 1
10
222.540727
20
7.553865
70
0
0
VERTEX
8
Layer 1
10
221.508307
20
6.650096
70
0
0
VERTEX
8
Layer 1
10
220.411662
20
5.900342
70
0
0
VERTEX
8
Layer 1
10
216.012970
20
3.604878
70
0
0
VERTEX
8
Layer 1
10
211.787910
20
1.997742
70
0
0
VERTEX
8
Layer 1
10
207.649666
20
0.961115
70
0
0
VERTEX
8
Layer 1
10
203.511423
20
0.377172
70
0
0
VERTEX
8
Layer 1
10
199.286363
20
0.128092
70
0
0
VERTEX
8
Layer 1
10
194.887671
20
0.096052
70
0
0
VERTEX
8
Layer 1
10
185.222123
20
0.211807
70
0
0
VERTEX
8
Layer 1
10
102.539935
20
0.476390
70
0
0
VERTEX
8
Layer 1
10
96.375978
20
0.551063
70
0
0
VERTEX
8
Layer 1
10
90.608896
20
0.776113
70
0
0
VERTEX
8
Layer 1
10
85.127067
20
1.153092
70
0
0
VERTEX
8
Layer 1
10
79.818870
20
1.683550
70
0
0
VERTEX
8
Layer 1
10
74.572685
20
2.369037
70
0
0
VERTEX
8
Layer 1
10
69.276891
20
3.211104
70
0
0
VERTEX
8
Layer 1
10
58.089991
20
5.371176
70
0
0
VERTEX
8
Layer 1
10
52.336457
20
6.736747
70
0
0
VERTEX
8
Layer 1
10
46.903476
20
8.326258
70
0
0
VERTEX
8
Layer 1
10
41.821958
20
10.099602
70
0
0
VERTEX
8
Layer 1
10
37.122814
20
12.016674
70
0
0
VERTEX
8
Layer 1
10
32.836952
20
14.037367
70
0
0
VERTEX
8
Layer 1
10
28.995283
20
16.121576
70
0
0
VERTEX
8
Layer 1
10
25.628716
20
18.229194
70
0
0
VERTEX
8
Layer 1
10
22.768161
20
20.320115
70
0
0
VERTEX
8
Layer 1
10
18.051028
20
24.307331
70
0
0
VERTEX
8
Layer 1
10
14.126903
20
28.225392
70
0
0
VERTEX
8
Layer 1
10
12.386379
20
30.267816
70
0
0
VERTEX
8
Layer 1
10
10.753099
20
32.424143
70
0
0
VERTEX
8
Layer 1
10
7.686930
20
37.253427
70
0
0
VERTEX
8
Layer 1
10
5.074177
20
42.346179
70
0
0
VERTEX
8
Layer 1
10
3.161622
20
47.204526
70
0
0
VERTEX
8
Layer 1
10
1.858078
20
51.982110
70
0
0
VERTEX
8
Layer 1
10
1.072358
20
56.832569
70
0
0
VERTEX
8
Layer 1
10
0.807492
20
61.440906
70
0
0
VERTEX
8
Layer 1
10
0.923253
20
65.528519
70
0
0
VERTEX
8
Layer 1
10
1.113566
20
69.303048
70
0
0
VERTEX
8
Layer 1
10
1.072358
20
72.972132
70
0
0
VERTEX
8
Layer 1
10
0.407193
20
79.620342
70
0
0
VERTEX
8
Layer 1
10
0.123514
20
82.789976
70
0
0
VERTEX
8
Layer 1
10
0.014026
20
86.201282
70
0
0
VERTEX
8
Layer 1
10
0.053601
20
92.243763
70
0
0
VERTEX
8
Layer 1
10
0.351327
20
94.693181
70
0
0
VERTEX
8
Layer 1
10
1.072358
20
97.049185
70
0
0
VERTEX
8
Layer 1
10
2.943378
20
101.547030
70
0
0
VERTEX
8
Layer 1
10
3.623739
20
103.820782
70
0
0
VERTEX
8
Layer 1
10
3.982768
20
106.309590
70
0
0
VERTEX
8
Layer 1
10
3.971187
20
107.613425
70
0
0
VERTEX
8
Layer 1
10
3.815560
20
108.882918
70
0
0
VERTEX
8
Layer 1
10
3.310178
20
111.341770
70
0
0
VERTEX
8
Layer 1
10
2.942654
20
113.731919
70
0
0
VERTEX
8
Layer 1
10
2.959348
20
114.915532
70
0
0
VERTEX
8
Layer 1
10
3.189019
20
116.099135
70
0
0
VERTEX
8
Layer 1
10
4.008896
20
118.266297
70
0
0
VERTEX
8
Layer 1
10
5.115362
20
120.047437
70
0
0
VERTEX
8
Layer 1
10
6.614644
20
121.474997
70
0
0
VERTEX
8
Layer 1
10
8.612970
20
122.581418
70
0
0
VERTEX
8
Layer 1
10
9.790440
20
122.882213
70
0
0
VERTEX
8
Layer 1
10
11.029681
20
122.875151
70
0
0
VERTEX
8
Layer 1
10
12.315861
20
122.631029
70
0
0
VERTEX
8
Layer 1
10
13.634147
20
122.220646
70
0
0
VERTEX
8
Layer 1
10
16.307710
20
121.184289
70
0
0
VERTEX
8
Layer 1
10
18.931707
20
120.332463
70
0
0
VERTEX
8
Layer 1
10
20.184103
20
120.164836
70
0
0
VERTEX
8
Layer 1
10
21.392114
20
120.192919
70
0
0
VERTEX
8
Layer 1
10
23.737904
20
120.597277
70
0
0
VERTEX
8
Layer 1
10
26.094915
20
121.067665
70
0
0
VERTEX
8
Layer 1
10
27.316953
20
121.178286
70
0
0
VERTEX
8
Layer 1
10
28.588987
20
121.126212
70
0
0
VERTEX
8
Layer 1
10
30.179779
20
121.103376
70
0
0
VERTEX
8
Layer 1
10
32.274029
20
121.313365
70
0
0
VERTEX
8
Layer 1
10
37.531065
20
122.262702
70
0
0
VERTEX
8
Layer 1
10
43.476432
20
123.635979
70
0
0
VERTEX
8
Layer 1
10
49.226461
20
125.094957
70
0
0
VERTEX
8
Layer 1
10
50.463870
20
125.501807
70
0
0
VERTEX
8
Layer 1
10
51.513380
20
126.016346
70
0
0
VERTEX
8
Layer 1
10
52.399273
20
126.621356
70
0
0
VERTEX
8
Layer 1
10
53.145828
20
127.299618
70
0
0
VERTEX
8
Layer 1
10
54.318051
20
128.807017
70
0
0
VERTEX
8
Layer 1
10
55.224293
20
130.400789
70
0
0
VERTEX
8
Layer 1
10
56.058800
20
131.943179
70
0
0
VERTEX
8
Layer 1
10
57.015817
20
133.296434
70
0
0
VERTEX
8
Layer 1
10
57.600969
20
133.859087
70
0
0
VERTEX
8
Layer 1
10
58.289590
20
134.322798
70
0
0
VERTEX
8
Layer 1
10
59.105962
20
134.670348
70
0
0
VERTEX
8
Layer 1
10
60.074364
20
134.884518
70
0
0
VERTEX
8
Layer 1
10
61.100354
20
134.933006
70
0
0
VERTEX
8
Layer 1
10
62.075784
20
134.805922
70
0
0
VERTEX
8
Layer 1
10
63.004383
20
134.519659
70
0
0
VERTEX
8
Layer 1
10
63.889874
20
134.090610
70
0
0
VERTEX
8
Layer 1
10
65.546442
20
132.869731
70
0
0
VERTEX
8
Layer 1
10
67.075296
20
131.274434
70
0
0
VERTEX
8
Layer 1
10
68.506247
20
129.435868
70
0
0
VERTEX
8
Layer 1
10
69.869103
20
127.485181
70
0
0
VERTEX
8
Layer 1
10
72.509765
20
123.772042
70
0
0
VERTEX
8
Layer 1
10
73.610265
20
121.900404
70
0
0
VERTEX
8
Layer 1
10
74.340382
20
119.693099
70
0
0
VERTEX
8
Layer 1
10
74.808412
20
117.273506
70
0
0
VERTEX
8
Layer 1
10
75.122654
20
114.765008
70
0
0
VERTEX
8
Layer 1
10
75.722960
20
109.974821
70
0
0
VERTEX
8
Layer 1
10
76.225618
20
107.939896
70
0
0
VERTEX
8
Layer 1
10
77.007676
20
106.309590
70
0
0
VERTEX
8
Layer 1
10
77.007676
20
106.309590
70
0
0
SEQEND
8
Layer 1
 0 
ENDSEC
 0 
EOF