<?xml version="1.0" encoding="UTF-8"?>
<svg xmlns="http://www.w3.org/2000/svg" xmlns:xlink="http://www.w3.org/1999/xlink" width="3073" height="2950.5" viewBox="0 0 3073 2950.5">
<path fill-rule="evenodd" fill="rgb(93.75%, 78.709412%, 34.910583%)" fill-opacity="1" d="M 1260.648438 200.609375 L 1055.121094 833.160156 C 1041.070312 876.398438 1000.78125 905.679688 955.3125 905.679688 C 955.3125 905.679688 290.203125 905.679688 290.203125 905.679688 C 164.601562 905.679688 53.28125 986.558594 14.46875 1106.011719 C -24.34375 1225.46875 18.175781 1356.328125 119.789062 1430.160156 L 657.875 1821.101562 C 694.65625 1847.820312 710.046875 1895.191406 696 1938.429688 C 696 1938.429688 490.46875 2570.988281 490.46875 2570.988281 C 451.65625 2690.441406 494.175781 2821.304688 595.789062 2895.132812 C 697.402344 2968.957031 835 2968.957031 936.613281 2895.132812 L 1474.699219 2504.1875 C 1511.480469 2477.464844 1561.289062 2477.464844 1598.070312 2504.1875 C 1598.070312 2504.1875 2136.160156 2895.132812 2136.160156 2895.132812 C 2237.769531 2968.957031 2375.371094 2968.957031 2476.980469 2895.132812 C 2578.601562 2821.304688 2621.121094 2690.441406 2582.300781 2570.988281 L 2376.769531 1938.429688 C 2362.71875 1895.191406 2378.109375 1847.820312 2414.890625 1821.101562 L 2952.980469 1430.160156 C 3054.589844 1356.328125 3097.121094 1225.46875 3058.300781 1106.011719 C 3019.488281 986.558594 2908.171875 905.679688 2782.570312 905.679688 L 2117.460938 905.679688 C 2071.988281 905.679688 2031.699219 876.398438 2017.648438 833.160156 L 1812.121094 200.609375 C 1773.308594 81.148438 1661.988281 0.269531 1536.390625 0.269531 C 1410.78125 0.269531 1299.460938 81.148438 1260.648438 200.609375 Z M 1381.351562 239.820312 C 1403.171875 172.660156 1465.761719 127.179688 1536.390625 127.179688 C 1607.011719 127.179688 1669.601562 172.660156 1691.421875 239.820312 L 1896.949219 872.378906 C 1927.988281 967.910156 2017.011719 1032.589844 2117.460938 1032.589844 L 2782.570312 1032.589844 C 2853.191406 1032.589844 2915.78125 1078.058594 2937.601562 1145.230469 C 2959.429688 1212.390625 2935.519531 1285.96875 2878.390625 1327.480469 L 2340.300781 1718.429688 C 2259.039062 1777.46875 2225.039062 1882.121094 2256.070312 1977.644531 C 2256.070312 1977.648438 2461.609375 2610.203125 2461.609375 2610.203125 C 2483.429688 2677.371094 2459.519531 2750.949219 2402.390625 2792.460938 C 2345.25 2833.972656 2267.890625 2833.972656 2210.75 2792.460938 C 2210.75 2792.460938 1672.671875 2401.519531 1672.671875 2401.519531 C 1591.398438 2342.476562 1481.371094 2342.476562 1400.109375 2401.519531 L 862.019531 2792.460938 C 804.882812 2833.972656 727.519531 2833.972656 670.382812 2792.460938 C 613.25 2750.949219 589.34375 2677.371094 611.164062 2610.203125 C 611.164062 2610.203125 816.695312 1977.648438 816.695312 1977.648438 C 847.734375 1882.121094 813.730469 1777.46875 732.46875 1718.429688 L 194.386719 1327.480469 C 137.25 1285.96875 113.34375 1212.390625 135.164062 1145.230469 C 156.988281 1078.058594 219.578125 1032.589844 290.203125 1032.589844 L 955.3125 1032.589844 C 1055.761719 1032.589844 1144.78125 967.910156 1175.820312 872.378906 L 1381.351562 239.820312 "/>
</svg>
